<svg width="10" height="8" viewBox="0 0 10 8" fill="none" xmlns="http://www.w3.org/2000/svg">
<path d="M3.22899 6.24205L8.86522 0.626679C8.97526 0.516638 9.09812 0.463748 9.2338 0.468012C9.36948 0.47229 9.49501 0.532124 9.61038 0.647513C9.72577 0.762888 9.78347 0.887081 9.78347 1.0201C9.78347 1.1531 9.72577 1.27729 9.61038 1.39268L3.71455 7.28849C3.5778 7.42524 3.41942 7.49362 3.2394 7.49362C3.05939 7.49362 2.90101 7.42524 2.76426 7.28849L0.389257 4.91351C0.279215 4.80347 0.221521 4.68061 0.216174 4.54493C0.21084 4.40925 0.265862 4.28372 0.381237 4.16835C0.496626 4.05296 0.620819 3.99526 0.753819 3.99526C0.886833 3.99526 1.01103 4.05296 1.1264 4.16835L3.22899 6.24205Z" fill="#C62A2F"/>
</svg>
