<svg width="33" height="32" viewBox="0 0 33 32" fill="none" xmlns="http://www.w3.org/2000/svg">
<path d="M30.8437 8.204L30.8432 8.2022C29.9153 5.05626 27.2747 2.41521 24.1289 1.48675C21.5658 0.741382 20.1508 0.918385 19.2805 1.5681L30.8437 8.204ZM30.8437 8.204C31.6038 10.7634 31.4073 12.1655 30.7426 13.0155L30.7293 13.0329M30.8437 8.204L30.7293 13.0329M30.7293 13.0329C30.3332 13.5629 29.7547 13.8911 29.0553 14.0864C28.3483 14.2838 27.5795 14.3276 26.8902 14.3276H22.298C20.7272 14.3276 19.7099 13.8868 19.067 13.1685C18.4057 12.4298 17.9858 11.2269 17.9858 9.39137V5.40724C17.9858 3.92827 18.1969 2.37822 19.2803 1.56831L30.7293 13.0329Z" stroke="#5EB0EF" stroke-width="2" stroke-linejoin="round"/>
<path opacity="0.4" d="M26.6301 18.8304L26.6413 18.843C26.8606 19.0877 26.9655 19.4206 26.922 19.7604L26.9219 19.7609C26.4774 23.243 24.5627 26.4541 21.6777 28.5509L21.6752 28.5527C19.4643 30.1702 16.8714 30.9999 14.1854 30.9999C13.3664 30.9999 12.5523 30.9255 11.7414 30.7633L11.7414 30.7633L11.7305 30.7612C6.6144 29.7973 2.53109 25.7132 1.56756 20.6139L1.56754 20.6138C0.89779 17.0715 1.67087 13.5446 3.7774 10.6519L3.77794 10.6511C5.87475 7.76616 9.08586 5.85149 12.568 5.40698L12.5718 5.40647C12.8949 5.36396 13.2423 5.46927 13.4858 5.68761L13.4985 5.69873C13.7568 5.92263 13.9054 6.25377 13.9054 6.59109V12.3193C13.9054 15.6876 16.6412 18.4234 20.0096 18.4234H25.7378C26.0751 18.4234 26.4062 18.572 26.6301 18.8304Z" stroke="#5EB0EF" stroke-width="2" stroke-linejoin="round"/>
</svg>
